<?xml version="1.0" encoding="UTF-8" standalone="no"?>
<svg
   xmlns:dc="http://purl.org/dc/elements/1.1/"
   xmlns:cc="http://creativecommons.org/ns#"
   xmlns:rdf="http://www.w3.org/1999/02/22-rdf-syntax-ns#"
   xmlns:svg="http://www.w3.org/2000/svg"
   xmlns="http://www.w3.org/2000/svg"
   xmlns:sodipodi="http://sodipodi.sourceforge.net/DTD/sodipodi-0.dtd"
   xmlns:inkscape="http://www.inkscape.org/namespaces/inkscape"
   viewBox="0 0 100 100"
   version="1.1"
   x="0px"
   y="0px"
   id="svg70"
   sodipodi:docname="Raspberry_BL.svg"
   width="100"
   height="100"
   inkscape:version="0.92.1 r15371">
  <metadata
     id="metadata76">
    <rdf:RDF>
      <cc:Work
         rdf:about="">
        <dc:format>image/svg+xml</dc:format>
        <dc:type
           rdf:resource="http://purl.org/dc/dcmitype/StillImage" />
        <dc:title>fruit_059-raspberry-food-eat-berry-nature</dc:title>
      </cc:Work>
    </rdf:RDF>
  </metadata>
  <defs
     id="defs74" />
  <sodipodi:namedview
     pagecolor="#ffffff"
     bordercolor="#666666"
     borderopacity="1"
     objecttolerance="10"
     gridtolerance="10"
     guidetolerance="10"
     inkscape:pageopacity="0"
     inkscape:pageshadow="2"
     inkscape:window-width="1920"
     inkscape:window-height="1017"
     id="namedview72"
     showgrid="false"
     borderlayer="false"
     fit-margin-top="0"
     fit-margin-left="0"
     fit-margin-right="0"
     fit-margin-bottom="0"
     inkscape:zoom="8"
     inkscape:cx="67.382974"
     inkscape:cy="55.175745"
     inkscape:window-x="-8"
     inkscape:window-y="-8"
     inkscape:window-maximized="1"
     inkscape:current-layer="svg70" />
  <title
     id="title10">fruit_059-raspberry-food-eat-berry-nature</title>
  <desc
     id="desc12">Created with Sketch.</desc>
  <path
     style="fill:#000000;fill-rule:evenodd;stroke:none;stroke-width:4.23582172"
     inkscape:connector-curvature="0"
     id="path14"
     d="m 7.3861151,92.614954 c 4.2742259,4.274278 10.6532329,5.489119 16.1459089,3.221713 1.081187,-0.446319 1.595836,-1.68463 1.149539,-2.765813 -0.446315,-1.0812 -1.684583,-1.595885 -2.765785,-1.149549 -3.924152,1.61991 -8.480888,0.752104 -11.534502,-2.301548 C 7.2502071,86.488654 6.422487,81.781917 8.1994915,77.806537 8.6768303,76.738672 8.1981221,75.486039 7.1302705,75.008693 6.0624188,74.531351 4.8097958,75.010061 4.33246,76.077922 1.8445887,81.643604 3.0032142,88.232005 7.3861151,92.614954 Z" />
  <path
     style="fill:#000000;fill-rule:evenodd;stroke:none;stroke-width:4.23582172"
     inkscape:connector-curvature="0"
     id="path16"
     d="m 4.3422261,77.687705 c 4.7170466,4.717102 11.9577899,5.67317 17.6998399,2.470892 1.021562,-0.569722 1.38785,-1.859732 0.818155,-2.881287 -0.569712,-1.021576 -1.859676,-1.387896 -2.88125,-0.81817 -4.09867,2.285789 -9.272337,1.602658 -12.641584,-1.766632 -4.1354543,-4.135499 -4.1354546,-10.840475 0,-14.975974 0.8270927,-0.827104 0.8270906,-2.168097 0,-2.995197 -0.8270911,-0.8271 -2.1680682,-0.827104 -2.9951609,0 -5.7896339,5.789699 -5.7896357,15.176665 0,20.966368 z" />
  <path
     style="fill:#000000;fill-rule:evenodd;stroke:none;stroke-width:4.23582172"
     inkscape:connector-curvature="0"
     id="path18"
     d="m 22.31435,95.657719 c 5.789637,5.789711 15.176489,5.789711 20.966125,0 0.82709,-0.8271 0.82709,-2.168097 0,-2.995192 -0.827091,-0.8271 -2.168071,-0.8271 -2.99516,0 -4.135455,4.135499 -10.84035,4.135499 -14.975804,0 -3.444675,-3.444717 -4.075264,-8.767855 -1.620898,-12.894683 0.597912,-1.005327 0.26763,-2.30502 -0.737693,-2.902931 -1.00531,-0.597915 -2.304985,-0.267634 -2.902891,0.737698 -3.439026,5.782459 -2.556514,13.23222 2.266321,18.055108 z" />
  <path
     style="fill:#000000;fill-rule:evenodd;stroke:none;stroke-width:4.23582172"
     inkscape:connector-curvature="0"
     id="path20"
     d="m 41.301195,94.641828 c 5.789637,5.789702 15.17649,5.789702 20.966125,0 1.687427,-1.687447 2.920455,-3.720886 3.634026,-5.947023 0.357035,-1.11387 -0.256478,-2.306287 -1.370335,-2.66333 -1.113858,-0.35704 -2.306261,0.25648 -2.663304,1.370347 -0.508978,1.58787 -1.387601,3.036852 -2.595549,4.244809 -4.13545,4.135503 -10.840349,4.135503 -14.975804,0 -4.135452,-4.135503 -4.135452,-10.840475 0,-14.975978 0.82709,-0.827096 0.82709,-2.168097 0,-2.995193 -0.827086,-0.8271 -2.168067,-0.8271 -2.995159,0 -5.789636,5.789703 -5.789636,15.176665 0,20.966368 z" />
  <path
     style="fill:#000000;fill-rule:evenodd;stroke:none;stroke-width:4.23582172"
     inkscape:connector-curvature="0"
     id="path22"
     d="m 5.3592659,37.733111 c -5.7896369,5.789706 -5.78963568,15.176668 0,20.966371 5.7896361,5.789703 15.1764891,5.789703 20.9661251,0 0.82709,-0.8271 0.827091,-2.168097 0,-2.995197 -0.82709,-0.8271 -2.168071,-0.8271 -2.99516,0 -4.135455,4.135503 -10.84035,4.135503 -14.9758042,0 -4.1354544,-4.135503 -4.1354548,-10.840475 0,-14.975979 1.1673725,-1.167386 2.5599172,-2.027351 4.0863312,-2.543408 1.108071,-0.374622 1.702653,-1.576593 1.328037,-2.684678 -0.37462,-1.108081 -1.576573,-1.702671 -2.684644,-1.328049 -2.1402012,0.723571 -4.0942688,1.930304 -5.7248851,3.56094 z" />
  <path
     style="fill:#000000;fill-rule:evenodd;stroke:none;stroke-width:4.23582172"
     inkscape:connector-curvature="0"
     id="path24"
     d="m 20.33507,58.699482 c -5.789637,5.789703 -5.789636,15.176664 0,20.966367 5.789637,5.789703 15.176489,5.789703 20.966125,0 0.853142,-0.85315 1.591882,-1.79635 2.206805,-2.812077 0.605779,-1.000608 0.285705,-2.302843 -0.714875,-2.908628 -1.000601,-0.605786 -2.302822,-0.285708 -2.908602,0.714888 -0.438824,0.724838 -0.966724,1.39885 -1.578488,2.010621 -4.135455,4.135503 -10.84035,4.135503 -14.975804,0 -4.135455,-4.1355 -4.135455,-10.840476 0,-14.975979 0.699993,-0.699999 1.48137,-1.290082 2.326622,-1.762392 1.02109,-0.57056 1.386321,-1.860858 0.815764,-2.881959 -0.570557,-1.021102 -1.860838,-1.386338 -2.881928,-0.815778 -1.184963,0.662135 -2.27911,1.488413 -3.255619,2.464937 z" />
  <path
     style="fill:#000000;fill-rule:evenodd;stroke:none;stroke-width:4.23582172"
     inkscape:connector-curvature="0"
     id="path26"
     d="m 14.344748,22.757132 c -5.7896368,5.789705 -5.7896355,15.176667 0,20.966371 1.719631,1.719652 3.798364,2.967121 6.073279,3.673932 1.117011,0.347042 2.303868,-0.277109 2.650916,-1.394153 0.347052,-1.117027 -0.277127,-2.303894 -1.394137,-2.650949 -1.622767,-0.504189 -3.103952,-1.393069 -4.334897,-2.624027 -4.135454,-4.135502 -4.135454,-10.840475 0,-14.975978 1.783642,-1.783663 4.091017,-2.843441 6.550932,-3.060395 1.165161,-0.102763 2.026405,-1.130627 1.923645,-2.295802 -0.10276,-1.165175 -1.130613,-2.02643 -2.295775,-1.923666 -3.441902,0.303561 -6.680267,1.790943 -9.173963,4.284667 z" />
  <path
     style="fill:#000000;fill-rule:evenodd;stroke:none;stroke-width:4.23582172"
     inkscape:connector-curvature="0"
     id="path28"
     d="m 56.277001,85.656242 c 5.789636,5.789703 15.176488,5.789703 20.966124,0 2.69644,-2.696472 4.212046,-6.260593 4.334253,-9.995784 0.03812,-1.169072 -0.878449,-2.147798 -2.047516,-2.18604 -1.169059,-0.03812 -2.147778,0.87846 -2.186014,2.047541 -0.08738,2.670625 -1.167517,5.210696 -3.095885,7.139087 -4.135455,4.135503 -10.840349,4.135503 -14.975805,0 -1.296081,-1.296102 -2.212615,-2.869498 -2.700134,-4.591429 -0.318616,-1.12546 -1.48931,-1.779504 -2.614749,-1.460863 -1.125443,0.318663 -1.779479,1.489328 -1.460841,2.61478 0.683297,2.413466 1.969726,4.621846 3.780567,6.432708 z" />
  <path
     style="fill:#000000;fill-rule:evenodd;stroke:none;stroke-width:4.23582172"
     inkscape:connector-curvature="0"
     id="path30"
     d="m 23.330231,37.733111 c -5.789637,5.789706 -5.789636,15.176668 0,20.966371 5.789635,5.789703 15.176488,5.789703 20.966123,0 1.012292,-1.012304 1.863027,-2.150921 2.536764,-3.385797 0.560218,-1.026812 0.18197,-2.313357 -0.844817,-2.873581 -1.0268,-0.560225 -2.313326,-0.181972 -2.873544,0.844827 -0.480547,0.880776 -1.087985,1.69377 -1.813562,2.419354 -4.135454,4.135503 -10.84035,4.135503 -14.975804,0 -4.135454,-4.135503 -4.135454,-10.840475 0,-14.975979 1.9094,-1.909422 4.418564,-2.987491 7.061938,-3.093119 1.168751,-0.0467 2.07835,-1.032034 2.031648,-2.200797 -0.0467,-1.168764 -1.032021,-2.078375 -2.200772,-2.031671 -3.697232,0.147741 -7.218109,1.660495 -9.887974,4.330392 z" />
  <path
     style="fill:#000000;fill-rule:evenodd;stroke:none;stroke-width:4.23582172"
     inkscape:connector-curvature="0"
     id="path32"
     d="m 41.301195,55.704285 c -5.789636,5.789703 -5.789636,15.176665 0,20.966368 5.789637,5.789707 15.17649,5.789707 20.966125,0 2.532609,-2.532634 4.026528,-5.832854 4.297682,-9.331748 0.09039,-1.1662 -0.781737,-2.184858 -1.947912,-2.275251 -1.166182,-0.09039 -2.184832,0.781747 -2.275224,1.947935 -0.193788,2.50089 -1.258286,4.852428 -3.069708,6.663871 -4.13545,4.135499 -10.840349,4.135499 -14.975804,0 -4.135452,-4.135503 -4.135452,-10.840475 0,-14.975978 0.707056,-0.707061 1.497126,-1.301977 2.352155,-1.776625 1.022678,-0.567717 1.391515,-1.856982 0.823791,-2.87968 -0.567707,-1.022686 -1.856957,-1.391527 -2.879643,-0.823805 -1.198689,0.665439 -2.305074,1.498516 -3.291462,2.484913 z" />
  <path
     style="fill:#000000;fill-rule:evenodd;stroke:none;stroke-width:4.23582172"
     inkscape:connector-curvature="0"
     id="path34"
     d="m 26.325391,13.771546 c -5.789636,5.789704 -5.789635,15.176666 0,20.966369 1.598254,1.598272 3.507446,2.789532 5.598821,3.517686 1.104646,0.384603 2.311918,-0.199118 2.696516,-1.303776 0.3846,-1.10466 -0.199114,-2.311944 -1.30376,-2.696547 -1.491516,-0.519299 -2.852159,-1.368288 -3.996416,-2.512558 -4.135454,-4.135503 -4.135454,-10.840476 0,-14.975979 3.294684,-3.294722 8.321308,-4.026596 12.386973,-1.904058 1.036888,0.541322 2.316273,0.139577 2.857591,-0.897323 C 45.106429,12.928461 44.704689,11.649059 43.6678,11.107738 37.973058,8.1347144 30.937844,9.1590391 26.325391,13.771546 Z" />
  <path
     style="fill:#000000;fill-rule:evenodd;stroke:none;stroke-width:4.23582172"
     inkscape:connector-curvature="0"
     id="path36"
     d="m 35.310874,28.747524 c -5.789637,5.789704 -5.789636,15.176665 0,20.966368 3.513767,3.513808 8.478337,4.991652 13.267689,4.079679 1.149036,-0.218781 1.903135,-1.327663 1.684356,-2.476704 -0.218779,-1.149049 -1.327647,-1.903161 -2.476679,-1.684375 -3.425925,0.65235 -6.968695,-0.402236 -9.480205,-2.913792 -4.135455,-4.135504 -4.135455,-10.840478 0,-14.97598 2.065423,-2.065449 4.831909,-3.155281 7.695291,-3.099611 1.169461,0.02274 2.13593,-0.906879 2.158668,-2.076355 0.02273,-1.169475 -0.906871,-2.135954 -2.076333,-2.158692 -4.003556,-0.07784 -7.884311,1.450952 -10.772787,4.339462 z" />
  <path
     style="fill:#000000;fill-rule:evenodd;stroke:none;stroke-width:4.23582172"
     inkscape:connector-curvature="0"
     id="path38"
     d="m 50.286678,43.723503 c -5.789636,5.789703 -5.789636,15.176664 0,20.966367 5.789635,5.789708 15.176488,5.789708 20.966123,0 2.966536,-2.96657 4.496845,-6.978328 4.329955,-11.087946 -0.04748,-1.168733 -1.033374,-2.077703 -2.20209,-2.030241 -1.16872,0.04748 -2.077683,1.033382 -2.030226,2.202111 0.119365,2.939508 -0.971666,5.799725 -3.092796,7.92088 -4.135456,4.135503 -10.840349,4.135503 -14.975805,0 -4.135455,-4.135499 -4.135455,-10.840475 0,-14.975974 2.111181,-2.11121 4.954561,-3.202161 7.88054,-3.094401 1.168889,0.04304 2.151361,-0.86964 2.194397,-2.038554 0.04306,-1.168893 -0.869618,-2.151375 -2.038507,-2.194423 -4.090772,-0.150658 -8.078999,1.379555 -11.031591,4.332181 z" />
  <path
     style="fill:#000000;fill-rule:evenodd;stroke:none;stroke-width:4.23582172"
     inkscape:connector-curvature="0"
     id="path40"
     d="m 65.262482,73.67546 c 5.789636,5.789703 15.176488,5.789703 20.966123,0 4.550246,-4.550298 5.613054,-11.463886 2.774041,-17.127106 -0.524197,-1.045657 -1.796804,-1.468378 -2.842453,-0.944179 -1.045649,0.524199 -1.46836,1.796833 -0.944168,2.842486 2.027109,4.043645 1.267762,8.983226 -1.982577,12.233603 -4.135455,4.135503 -10.840353,4.135503 -14.975804,0 -1.232651,-1.232666 -2.122283,-2.716254 -2.626076,-4.341641 -0.346319,-1.117255 -1.53274,-1.742242 -2.649987,-1.395919 -1.117246,0.346323 -1.742221,1.532758 -1.395902,2.650026 0.706272,2.278563 1.954782,4.360689 3.676803,6.08273 z" />
  <path
     style="fill:#000000;fill-rule:evenodd;stroke:none;stroke-width:4.23582172"
     inkscape:connector-curvature="0"
     id="path42"
     d="m 85.404184,33.994425 c 0.201963,-0.309094 0.337212,-0.571014 0.417946,-0.774131 0.431979,-1.087005 -0.09899,-2.318389 -1.186002,-2.750375 -1.08699,-0.431986 -2.318362,0.09901 -2.750341,1.186015 -0.64565,0.967521 -2.069886,2.142572 -4.66679,3.313966 -4.056953,1.829992 -9.970655,3.127513 -18.060455,3.627498 -1.167458,0.07215 -2.055374,1.077066 -1.983217,2.24454 0.07213,1.16747 1.077053,2.055397 2.244506,1.983244 15.273162,-0.943942 23.153921,-4.498756 25.984361,-8.83075 z" />
  <path
     style="fill:#000000;fill-rule:evenodd;stroke:none;stroke-width:4.23582172"
     inkscape:connector-curvature="0"
     id="path44"
     d="m 88.305506,57.402093 c 2.781597,-0.434001 5.375146,-1.272605 7.719858,-2.362103 1.420581,-0.660093 2.459931,-1.26875 3.055717,-1.680021 0.962619,-0.664486 1.204289,-1.983524 0.539814,-2.946146 -0.664486,-0.962621 -1.983505,-1.20431 -2.94612,-0.53982 -0.409305,0.282573 -1.245019,0.771974 -2.434325,1.324583 -2.005082,0.931687 -4.225851,1.649747 -6.587935,2.0183 -9.221055,1.438735 -17.924368,-2.604414 -25.333946,-14.822346 -0.606541,-1.000147 -1.90901,-1.319222 -2.909141,-0.712675 -1.000135,0.606546 -1.319205,1.909031 -0.712664,2.909175 8.300302,13.686675 18.692313,18.514316 29.608742,16.811053 z" />
  <path
     style="fill:#000000;fill-rule:evenodd;stroke:none;stroke-width:4.23582172"
     inkscape:connector-curvature="0"
     id="path46"
     d="m 87.365269,38.146863 c -0.117501,-2.955508 -0.877268,-5.283763 -1.646454,-6.712649 -0.554437,-1.029946 -1.838819,-1.415419 -2.868749,-0.86098 -1.029938,0.554434 -1.415413,1.838829 -0.860972,2.868781 0.100346,0.186368 0.290194,0.618178 0.497464,1.253365 0.356866,1.093609 0.594333,2.313714 0.646256,3.619752 0.196033,4.931012 -2.184659,9.703909 -8.413483,13.974421 -0.964716,0.661432 -1.210612,1.979674 -0.549197,2.944413 0.661407,0.964735 1.979655,1.210618 2.944379,0.549199 7.43318,-5.096223 10.504501,-11.253699 10.250756,-17.636302 z" />
  <path
     style="fill:#000000;fill-rule:evenodd;stroke:none;stroke-width:4.23582172"
     inkscape:connector-curvature="0"
     id="path48"
     d="m 94.267195,53.809985 c 2.146617,0.49298 3.749392,0.202516 4.718538,-0.389401 0.998217,-0.609695 1.313187,-1.913171 0.703498,-2.911404 -0.609688,-0.998232 -1.913148,-1.313201 -2.911369,-0.703506 -0.04676,0.0288 -0.522443,0.114792 -1.562585,-0.124068 -2.225459,-0.511089 -5.148502,-2.332244 -8.76788,-5.951669 -0.827094,-0.8271 -2.168071,-0.8271 -2.995162,0 -0.82709,0.8271 -0.827094,2.168093 0,2.995197 4.139945,4.139993 7.72911,6.376168 10.81496,7.084851 z" />
  <path
     style="fill:#000000;fill-rule:evenodd;stroke:none;stroke-width:4.23582172"
     inkscape:connector-curvature="0"
     id="path50"
     d="m 63.229901,26.374163 c 1.008903,-2.183154 2.335597,-4.310555 3.82121,-6.284329 0.890284,-1.182825 1.627253,-2.041591 2.04966,-2.488096 0.803848,-0.849708 0.766679,-2.190188 -0.08302,-2.994045 -0.849697,-0.803856 -2.190161,-0.766686 -2.99401,0.08302 -0.525209,0.555169 -1.363685,1.532216 -2.356899,2.8518 -1.653553,2.196902 -3.134523,4.571686 -4.281997,7.054685 -2.878016,6.227708 -3.226,12.149135 0.07286,17.173729 0.641965,0.97779 1.955015,1.250028 2.932794,0.60806 0.977774,-0.641968 1.250009,-1.955035 0.608053,-2.932823 -2.355654,-3.58797 -2.094013,-8.040172 0.231359,-13.072004 z" />
  <path
     style="fill:#000000;fill-rule:evenodd;stroke:none;stroke-width:4.23582172"
     inkscape:connector-curvature="0"
     id="path52"
     d="M 46.783729,12.34762 C 47.152273,9.9855061 47.870329,7.7647167 48.802005,5.759611 49.35462,4.5703027 49.84402,3.7345766 50.126569,3.325253 50.791051,2.3626301 50.549369,1.0435945 49.586759,0.37910403 48.624144,-0.28538644 47.305126,-0.04370201 46.640643,0.91892062 46.22939,1.5147148 45.620727,2.5540758 44.960642,3.9746745 43.871156,6.3194146 43.032566,8.912994 42.598566,11.694622 c -1.70324,10.916558 3.124341,21.30869 16.810862,29.609091 1.000131,0.606547 2.3026,0.28747 2.909137,-0.712675 0.606541,-1.000145 0.287471,-2.302627 -0.712664,-2.909172 C 49.388108,30.272196 45.34501,21.568784 46.783729,12.34762 Z" />
  <path
     style="fill:#000000;fill-rule:evenodd;stroke:none;stroke-width:4.23582172"
     inkscape:connector-curvature="0"
     id="path54"
     d="m 61.822947,17.591499 c 1.273196,0.01059 2.539856,0.129468 3.734084,0.319844 0.708856,0.113 1.22484,0.222018 1.485155,0.287957 1.133868,0.287233 2.285894,-0.399114 2.57312,-1.532998 0.287229,-1.133882 -0.399097,-2.285921 -1.532978,-2.573152 -0.377409,-0.09561 -1.016214,-0.23057 -1.858473,-0.364838 -1.390972,-0.221742 -2.864457,-0.360026 -4.365675,-0.372517 -9.850252,-0.08194 -15.978087,5.072982 -13.786083,17.009212 0.211282,1.150458 1.315164,1.911815 2.465607,1.700539 1.150446,-0.211275 1.911793,-1.315179 1.70052,-2.465636 -1.637936,-8.919133 2.108334,-12.070609 9.584723,-12.008411 z" />
  <path
     style="fill:#000000;fill-rule:evenodd;stroke:none;stroke-width:4.23582172"
     inkscape:connector-curvature="0"
     id="path56"
     d="M 54.667428,11.899158 C 53.370397,10.358063 52.315116,8.2519012 51.510645,5.8374875 50.939452,4.1231884 50.612097,2.6549896 50.481024,1.7980096 50.30418,0.64175899 49.223505,-0.15220474 48.067264,0.02464205 46.911027,0.20148906 46.117073,1.2821782 46.293918,2.4384289 c 0.04388,0.2868303 0.13347,0.7725613 0.276513,1.4142067 0.235171,1.0548214 0.539416,2.1767895 0.921616,3.3238576 0.959374,2.8793218 2.241863,5.4389608 3.934619,7.4502428 1.013876,1.204656 2.153009,2.179434 3.428662,2.883386 1.024101,0.565138 2.312431,0.193066 2.877563,-0.831049 0.565127,-1.024115 0.193068,-2.312458 -0.831042,-2.877596 -0.793056,-0.437638 -1.538776,-1.075767 -2.23443,-1.902319 z" />
  <path
     style="fill:#000000;fill-rule:evenodd;stroke:none;stroke-width:4.23582172"
     inkscape:connector-curvature="0"
     id="path58"
     d="m 83.062864,24.206624 c 2.42959,-1.0298 3.618023,-1.087133 3.856477,-0.98888 1.081475,0.445613 2.319421,-0.06987 2.765031,-1.151354 0.44561,-1.081489 -0.06985,-2.319448 -1.151336,-2.765064 -1.352423,-0.557254 -3.704332,-0.443794 -7.123175,1.00531 -5.156668,2.185694 -11.75396,7.042612 -20.009397,15.298146 -0.82709,0.8271 -0.82709,2.168096 0,2.995195 0.827091,0.827099 2.168072,0.827101 2.995162,0 7.901138,-7.90123 14.076523,-12.447542 18.667238,-14.393353 z" />
</svg>
