<?xml version="1.0" encoding="UTF-8" standalone="no"?>
<svg
   xmlns:dc="http://purl.org/dc/elements/1.1/"
   xmlns:cc="http://creativecommons.org/ns#"
   xmlns:rdf="http://www.w3.org/1999/02/22-rdf-syntax-ns#"
   xmlns:svg="http://www.w3.org/2000/svg"
   xmlns="http://www.w3.org/2000/svg"
   xmlns:sodipodi="http://sodipodi.sourceforge.net/DTD/sodipodi-0.dtd"
   xmlns:inkscape="http://www.inkscape.org/namespaces/inkscape"
   viewBox="0 0 100 100"
   version="1.1"
   x="0px"
   y="0px"
   id="svg70"
   sodipodi:docname="Raspberry_CL.svg"
   width="100"
   height="100"
   inkscape:version="0.92.1 r15371">
  <metadata
     id="metadata76">
    <rdf:RDF>
      <cc:Work
         rdf:about="">
        <dc:format>image/svg+xml</dc:format>
        <dc:type
           rdf:resource="http://purl.org/dc/dcmitype/StillImage" />
        <dc:title>fruit_059-raspberry-food-eat-berry-nature</dc:title>
      </cc:Work>
    </rdf:RDF>
  </metadata>
  <defs
     id="defs74" />
  <sodipodi:namedview
     pagecolor="#ffffff"
     bordercolor="#666666"
     borderopacity="1"
     objecttolerance="10"
     gridtolerance="10"
     guidetolerance="10"
     inkscape:pageopacity="0"
     inkscape:pageshadow="2"
     inkscape:window-width="1920"
     inkscape:window-height="1017"
     id="namedview72"
     showgrid="false"
     borderlayer="false"
     fit-margin-top="0"
     fit-margin-left="0"
     fit-margin-right="0"
     fit-margin-bottom="0"
     inkscape:zoom="8"
     inkscape:cx="67.382974"
     inkscape:cy="45.175745"
     inkscape:window-x="-8"
     inkscape:window-y="-8"
     inkscape:window-maximized="1"
     inkscape:current-layer="svg70" />
  <title
     id="title10">fruit_059-raspberry-food-eat-berry-nature</title>
  <desc
     id="desc12">Created with Sketch.</desc>
  <g
     id="g277"
     transform="matrix(4.235797,0,0,4.2358463,-0.56044801,-0.7045056)">
    <path
       d="m 1.8760491,22.030889 c 1.0090725,1.009073 2.515048,1.295873 3.8117758,0.760583 0.25525,-0.105367 0.37675,-0.397708 0.2713868,-0.652954 C 5.8538443,21.883268 5.5615101,21.761761 5.3062566,21.867132 4.3798308,22.249561 3.3040625,22.044689 2.5831559,21.323782 1.8439635,20.58459 1.6485528,19.473422 2.0680735,18.534913 2.1807651,18.282811 2.0677502,17.987089 1.8156485,17.874397 1.5635468,17.761706 1.2678237,17.87472 1.1551328,18.126821 c -0.58734433,1.313948 -0.31381244,2.86934 0.7209163,3.904068 z"
       id="path14"
       inkscape:connector-curvature="0"
       style="fill:#000000;fill-rule:evenodd;stroke:none;stroke-width:1" />
    <path
       d="m 1.1574384,18.506859 c 1.1136149,1.113615 2.8230319,1.339324 4.1786327,0.583329 0.2411736,-0.1345 0.3276478,-0.439046 0.1931525,-0.680215 -0.1344994,-0.241174 -0.4390379,-0.327655 -0.6802142,-0.193154 -0.9676268,0.53963 -2.189042,0.378356 -2.9844642,-0.417067 -0.97631078,-0.97631 -0.97631085,-2.559223 0,-3.535533 0.1952626,-0.195263 0.1952621,-0.511845 0,-0.707107 -0.1952622,-0.195262 -0.5118442,-0.195263 -0.7071068,0 -1.3668346,1.366834 -1.36683502,3.582912 0,4.949747 z"
       id="path16"
       inkscape:connector-curvature="0"
       style="fill:#000000;fill-rule:evenodd;stroke:none;stroke-width:1" />
    <path
       d="m 5.4003527,22.749226 c 1.3668353,1.366836 3.5829122,1.366836 4.9497473,0 0.195262,-0.195262 0.195262,-0.511845 0,-0.707106 -0.195262,-0.195262 -0.5118447,-0.195262 -0.7071066,0 -0.9763108,0.97631 -2.5592231,0.97631 -3.5355339,0 C 5.2942301,21.22889 5.1453587,19.972202 5.7247931,18.997939 5.86595,18.760601 5.7879759,18.453769 5.5506362,18.312614 5.3132994,18.171458 5.0064681,18.249431 4.8653126,18.48677 4.0534168,19.851895 4.261763,21.610637 5.4003527,22.749226 Z"
       id="path18"
       inkscape:connector-curvature="0"
       style="fill:#000000;fill-rule:evenodd;stroke:none;stroke-width:1" />
    <path
       d="m 9.8828256,22.509394 c 1.3668354,1.366835 3.5829124,1.366835 4.9497474,0 0.398373,-0.398373 0.68947,-0.878428 0.857932,-1.403975 0.08429,-0.262963 -0.06055,-0.544469 -0.323513,-0.62876 -0.262963,-0.08429 -0.544469,0.06055 -0.628761,0.323512 -0.120161,0.374865 -0.327589,0.716941 -0.612765,1.002116 -0.97631,0.976311 -2.559223,0.976311 -3.535534,0 -0.9763104,-0.976311 -0.9763104,-2.559223 0,-3.535534 0.195262,-0.195261 0.195262,-0.511845 0,-0.707106 -0.195261,-0.195262 -0.511844,-0.195262 -0.7071064,0 -1.3668352,1.366835 -1.3668352,3.582912 0,4.949747 z"
       id="path20"
       inkscape:connector-curvature="0"
       style="fill:#000000;fill-rule:evenodd;stroke:none;stroke-width:1" />
    <path
       d="m 1.3975443,9.0743652 c -1.36683532,1.3668358 -1.36683503,3.5829128 0,4.9497478 1.366835,1.366835 3.5829122,1.366835 4.9497474,0 0.1952619,-0.195262 0.1952622,-0.511845 0,-0.707107 -0.1952621,-0.195262 -0.5118449,-0.195262 -0.7071067,0 -0.9763109,0.976311 -2.5592232,0.976311 -3.5355339,0 -0.9763108,-0.976311 -0.9763109,-2.559223 0,-3.535534 C 2.380248,9.505875 2.7090042,9.3028543 3.0693648,9.1810233 3.3309616,9.0925824 3.4713324,8.8088207 3.3828917,8.5472237 3.2944504,8.2856275 3.0106895,8.1452565 2.7490927,8.2336974 2.2438275,8.4045182 1.7825052,8.6894043 1.3975443,9.0743652 Z"
       id="path22"
       inkscape:connector-curvature="0"
       style="fill:#000000;fill-rule:evenodd;stroke:none;stroke-width:1" />
    <path
       d="m 4.9330782,14.024113 c -1.3668353,1.366835 -1.366835,3.582912 0,4.949747 1.3668353,1.366835 3.5829122,1.366835 4.9497474,0 0.2014124,-0.201412 0.3758164,-0.424083 0.5209894,-0.663876 0.143014,-0.236224 0.06745,-0.543656 -0.16877,-0.68667 -0.2362249,-0.143014 -0.5436572,-0.06745 -0.6866717,0.168771 -0.1035989,0.17112 -0.2282272,0.330241 -0.3726544,0.474668 -0.9763109,0.976311 -2.5592231,0.976311 -3.5355339,0 -0.9763108,-0.97631 -0.9763109,-2.559223 0,-3.535534 0.1652565,-0.165256 0.3497265,-0.304563 0.5492761,-0.416066 0.2410622,-0.134698 0.327287,-0.439312 0.1925882,-0.680374 C 6.2473505,13.393717 5.9427369,13.307492 5.7016747,13.44219 5.4219251,13.598507 5.1636155,13.793575 4.9330782,14.024113 Z"
       id="path24"
       inkscape:connector-curvature="0"
       style="fill:#000000;fill-rule:evenodd;stroke:none;stroke-width:1" />
    <path
       d="m 3.5188646,5.5388313 c -1.3668353,1.3668353 -1.366835,3.5829125 0,4.9497477 0.4059758,0.405976 0.8967294,0.700479 1.4337985,0.867343 0.2637073,0.08193 0.5439042,-0.06542 0.6258364,-0.329132 C 5.6604325,10.763082 5.5130745,10.482886 5.2493672,10.400953 4.8662593,10.281924 4.5165766,10.072077 4.2259714,9.781472 3.2496606,8.8051613 3.2496606,7.2222489 4.2259714,6.2459381 4.6470591,5.8248504 5.1917914,5.5746575 5.7725355,5.523439 6.0476104,5.4991786 6.2509355,5.2565201 6.2266757,4.9814453 6.2024158,4.7063704 5.959757,4.5030451 5.6846821,4.5273055 4.8721071,4.5989703 4.107584,4.9501119 3.5188646,5.5388313 Z"
       id="path26"
       inkscape:connector-curvature="0"
       style="fill:#000000;fill-rule:evenodd;stroke:none;stroke-width:1" />
    <path
       d="m 13.41836,20.388074 c 1.366835,1.366835 3.582912,1.366835 4.949747,0 0.636584,-0.636584 0.994393,-1.478003 1.023244,-2.359808 0.009,-0.275995 -0.207387,-0.507053 -0.483384,-0.516081 -0.275995,-0.009 -0.507054,0.207387 -0.516081,0.483384 -0.02063,0.630482 -0.275631,1.230143 -0.730886,1.685398 -0.976311,0.976311 -2.559223,0.976311 -3.535534,0 -0.305983,-0.305984 -0.522361,-0.677432 -0.637456,-1.083946 -0.07522,-0.265699 -0.351601,-0.420106 -0.617298,-0.344881 -0.265698,0.07523 -0.420105,0.351601 -0.34488,0.617298 0.161315,0.569772 0.465019,1.091127 0.892528,1.518636 z"
       id="path28"
       inkscape:connector-curvature="0"
       style="fill:#000000;fill-rule:evenodd;stroke:none;stroke-width:1" />
    <path
       d="m 5.640185,9.0743652 c -1.3668353,1.3668358 -1.366835,3.5829128 0,4.9497478 1.366835,1.366835 3.5829121,1.366835 4.949747,0 0.238985,-0.238985 0.439829,-0.50779 0.598887,-0.79932 0.132258,-0.24241 0.04296,-0.546138 -0.199447,-0.678396 -0.24241,-0.132258 -0.546137,-0.04296 -0.678395,0.199447 -0.113449,0.207934 -0.256855,0.399866 -0.4281514,0.571162 -0.9763108,0.976311 -2.5592231,0.976311 -3.5355339,0 -0.9763107,-0.976311 -0.9763108,-2.559223 0,-3.535534 C 6.7980688,9.330695 7.3904398,9.0761841 8.0144957,9.0512474 8.2904181,9.0402217 8.5051591,8.8076045 8.4941334,8.5316824 8.4831076,8.2557603 8.2504907,8.041019 7.9745684,8.0520449 7.1017144,8.0869236 6.270495,8.4440552 5.640185,9.0743652 Z"
       id="path30"
       inkscape:connector-curvature="0"
       style="fill:#000000;fill-rule:evenodd;stroke:none;stroke-width:1" />
    <path
       d="m 9.8828256,13.317006 c -1.3668352,1.366835 -1.3668352,3.582912 0,4.949747 1.3668354,1.366836 3.5829124,1.366836 4.9497474,0 0.597906,-0.597905 0.950595,-1.377022 1.01461,-2.203042 0.02134,-0.275317 -0.184555,-0.515802 -0.459869,-0.537142 -0.275316,-0.02134 -0.515802,0.184555 -0.537142,0.459869 -0.04575,0.590411 -0.29706,1.145563 -0.724706,1.573209 -0.97631,0.97631 -2.559223,0.97631 -3.535534,0 -0.9763104,-0.976311 -0.9763104,-2.559223 0,-3.535534 0.166924,-0.166923 0.353446,-0.307371 0.555304,-0.419426 0.241437,-0.134027 0.328513,-0.438397 0.194483,-0.679836 -0.134026,-0.241436 -0.438396,-0.328512 -0.679835,-0.194484 -0.28299,0.157097 -0.544189,0.35377 -0.7770584,0.586639 z"
       id="path32"
       inkscape:connector-curvature="0"
       style="fill:#000000;fill-rule:evenodd;stroke:none;stroke-width:1" />
    <path
       d="m 6.3472917,3.417511 c -1.3668352,1.3668353 -1.366835,3.5829124 0,4.9497475 C 6.7246124,8.7445791 7.1753403,9.0258121 7.6690785,9.1977149 7.9298669,9.288512 8.2148834,9.150707 8.3056804,8.8899191 8.396478,8.6291305 8.258673,8.3441144 7.9978847,8.2533173 7.6457629,8.130721 7.3245383,7.9302915 7.0543985,7.6601517 6.0780878,6.6838409 6.0780877,5.1009286 7.0543985,4.1246178 7.8322176,3.3467987 9.0189185,3.1740175 9.9787532,3.675107 10.223545,3.8029025 10.525586,3.7080584 10.653382,3.4632668 10.781177,3.2184752 10.686333,2.9164337 10.441541,2.7886383 9.0971087,2.086766 7.4362138,2.3285889 6.3472917,3.417511 Z"
       id="path34"
       inkscape:connector-curvature="0"
       style="fill:#000000;fill-rule:evenodd;stroke:none;stroke-width:1" />
    <path
       d="m 8.4686121,6.9530449 c -1.3668353,1.3668353 -1.366835,3.5829121 0,4.9497471 0.829541,0.829541 2.0015919,1.178431 3.1322769,0.963132 0.271268,-0.05165 0.449298,-0.313435 0.397648,-0.584701 -0.05165,-0.271268 -0.313435,-0.449299 -0.584702,-0.397648 -0.808803,0.154007 -1.6451911,-0.09496 -2.2381161,-0.687889 -0.9763108,-0.976311 -0.9763109,-2.5592235 0,-3.5355343 C 9.6633305,7.17254 10.316451,6.9152519 10.992447,6.9283945 11.268537,6.9337623 11.496704,6.7142983 11.502072,6.4382081 11.507439,6.162118 11.287975,5.9339512 11.011885,5.9285834 10.066713,5.9102074 9.1505324,6.2711245 8.4686121,6.9530449 Z"
       id="path36"
       inkscape:connector-curvature="0"
       style="fill:#000000;fill-rule:evenodd;stroke:none;stroke-width:1" />
    <path
       d="m 12.004146,10.488579 c -1.366835,1.366835 -1.366835,3.582912 0,4.949747 1.366835,1.366836 3.582912,1.366836 4.949747,0 0.700349,-0.700349 1.061629,-1.647446 1.022229,-2.617646 -0.01121,-0.275915 -0.243962,-0.490505 -0.519876,-0.4793 -0.275915,0.01121 -0.490506,0.243961 -0.479302,0.519875 0.02818,0.69396 -0.229394,1.369201 -0.730157,1.869964 -0.976311,0.976311 -2.559223,0.976311 -3.535534,0 -0.976311,-0.97631 -0.976311,-2.559223 0,-3.535533 0.498414,-0.498415 1.169688,-0.755967 1.860462,-0.730527 0.275955,0.01016 0.5079,-0.205305 0.51806,-0.4812625 C 15.099941,9.7079437 14.884473,9.475999 14.608518,9.4658362 13.642756,9.430269 12.701203,9.7915221 12.004146,10.488579 Z"
       id="path38"
       inkscape:connector-curvature="0"
       style="fill:#000000;fill-rule:evenodd;stroke:none;stroke-width:1" />
    <path
       d="m 15.53968,17.559647 c 1.366835,1.366835 3.582912,1.366835 4.949747,0 1.074236,-1.074236 1.325147,-2.706398 0.654904,-4.043373 -0.123754,-0.246859 -0.424195,-0.346655 -0.671055,-0.222902 -0.24686,0.123753 -0.346655,0.424197 -0.222902,0.671055 0.478566,0.954625 0.299297,2.120763 -0.468053,2.888113 -0.976311,0.976311 -2.559224,0.976311 -3.535534,0 -0.291008,-0.291008 -0.501035,-0.641254 -0.619972,-1.024976 -0.08176,-0.263762 -0.361854,-0.411309 -0.625617,-0.329549 -0.263763,0.08176 -0.411309,0.361854 -0.329549,0.625619 0.166739,0.537924 0.461491,1.029473 0.868031,1.436013 z"
       id="path40"
       inkscape:connector-curvature="0"
       style="fill:#000000;fill-rule:evenodd;stroke:none;stroke-width:1" />
    <path
       d="m 20.294795,8.191735 c 0.04768,-0.072971 0.07961,-0.1348051 0.09867,-0.182757 0.101983,-0.2566205 -0.02337,-0.5473261 -0.279995,-0.6493094 -0.25662,-0.1019834 -0.547326,0.023374 -0.649309,0.2799947 -0.152427,0.2284126 -0.488665,0.5058191 -1.10175,0.7823622 -0.957778,0.4320251 -2.353903,0.7383443 -4.263768,0.8563809 -0.275617,0.017034 -0.485239,0.2542741 -0.468204,0.5298918 0.01703,0.2756168 0.254274,0.4852388 0.52989,0.4682048 3.605735,-0.222846 5.466249,-1.0620678 6.134468,-2.0847663 z"
       id="path42"
       inkscape:connector-curvature="0"
       style="fill:#000000;fill-rule:evenodd;stroke:none;stroke-width:1" />
    <path
       d="m 20.979748,13.717825 c 0.656688,-0.102459 1.268981,-0.300437 1.822528,-0.557646 0.335375,-0.155835 0.580748,-0.299527 0.721403,-0.39662 0.227257,-0.156872 0.284313,-0.468271 0.127441,-0.695527 -0.156874,-0.227256 -0.468272,-0.284314 -0.695529,-0.127441 -0.09663,0.06671 -0.293928,0.182248 -0.574703,0.312708 -0.473366,0.219953 -0.997652,0.389473 -1.5553,0.476481 -2.176935,0.339657 -4.23164,-0.614851 -5.980916,-3.4992644 -0.143194,-0.236115 -0.450685,-0.3114423 -0.686799,-0.1682486 -0.236115,0.1431938 -0.311442,0.4506847 -0.168248,0.686799 1.959561,3.231155 4.412939,4.370866 6.990123,3.968759 z"
       id="path44"
       inkscape:connector-curvature="0"
       style="fill:#000000;fill-rule:evenodd;stroke:none;stroke-width:1" />
    <path
       d="M 20.757774,9.1720441 C 20.730034,8.4743067 20.550666,7.9246515 20.369074,7.5873195 20.238181,7.3441695 19.93496,7.253167 19.691811,7.3840591 19.44866,7.51495 19.357656,7.8181704 19.48855,8.0613218 c 0.02369,0.043998 0.06851,0.1459398 0.117443,0.2958949 0.08425,0.2581795 0.140312,0.5462223 0.15257,0.8545524 0.04628,1.1641149 -0.515761,2.2909019 -1.986281,3.2990859 -0.227753,0.156151 -0.285805,0.467362 -0.129656,0.695118 0.156147,0.227755 0.467363,0.285803 0.695118,0.129655 1.754848,-1.203118 2.479935,-2.656777 2.42003,-4.1635839 z"
       id="path46"
       inkscape:connector-curvature="0"
       style="fill:#000000;fill-rule:evenodd;stroke:none;stroke-width:1" />
    <path
       d="m 22.387202,12.869799 c 0.50678,0.116383 0.885168,0.04781 1.113967,-0.09193 0.235662,-0.143937 0.310021,-0.451662 0.166084,-0.687325 -0.143937,-0.235663 -0.451662,-0.310021 -0.687325,-0.166084 -0.01104,0.0068 -0.12334,0.0271 -0.3689,-0.02929 -0.525393,-0.120658 -1.215474,-0.550597 -2.069948,-1.405072 -0.195263,-0.195262 -0.511845,-0.195262 -0.707107,0 -0.195262,0.195262 -0.195263,0.511844 0,0.707107 0.977371,0.977371 1.824712,1.505288 2.553229,1.672594 z"
       id="path48"
       inkscape:connector-curvature="0"
       style="fill:#000000;fill-rule:evenodd;stroke:none;stroke-width:1" />
    <path
       d="m 15.059822,6.392741 c 0.238185,-0.5153997 0.551395,-1.0176371 0.902123,-1.4836064 0.210181,-0.2792417 0.384167,-0.4819796 0.48389,-0.5873905 0.189775,-0.2005995 0.181,-0.5170603 -0.0196,-0.7068351 -0.200599,-0.1897747 -0.51706,-0.1809995 -0.706835,0.0196 -0.123993,0.1310646 -0.321943,0.3617262 -0.556424,0.6732538 -0.390376,0.5186454 -0.740008,1.0792852 -1.010907,1.6654726 -0.679451,1.4702392 -0.761604,2.8681718 0.0172,4.0543796 0.151557,0.230837 0.461546,0.295107 0.692383,0.143551 0.230836,-0.151556 0.295106,-0.4615453 0.143551,-0.6923818 -0.55613,-0.8470493 -0.494361,-1.8981265 0.05462,-3.0860431 z"
       id="path50"
       inkscape:connector-curvature="0"
       style="fill:#000000;fill-rule:evenodd;stroke:none;stroke-width:1" />
    <path
       d="M 11.177159,3.0813502 C 11.264166,2.5237015 11.433687,1.9994168 11.65364,1.5260508 11.784103,1.2452785 11.899642,1.04798 11.966347,0.95134675 12.12322,0.72409041 12.066163,0.41269204 11.838907,0.25581892 11.61165,0.09894579 11.300252,0.15600273 11.143379,0.383259 c -0.09709,0.14065528 -0.240785,0.38602798 -0.39662,0.7214034 -0.257209,0.553547 -0.455186,1.1658401 -0.557646,1.8225277 -0.4021061,2.5771847 0.737604,5.0305626 3.96876,6.9901242 0.236114,0.1431937 0.543605,0.067866 0.686798,-0.1682486 C 14.987865,9.512951 14.912538,9.2054606 14.676423,9.0622673 11.792009,7.3129901 10.837502,5.2582857 11.177159,3.0813502 Z"
       id="path52"
       inkscape:connector-curvature="0"
       style="fill:#000000;fill-rule:evenodd;stroke:none;stroke-width:1" />
    <path
       d="m 14.727664,4.3193268 c 0.30058,0.0025 0.599617,0.030565 0.881554,0.075509 0.167349,0.026677 0.289164,0.052414 0.35062,0.067981 0.267687,0.06781 0.539661,-0.094223 0.60747,-0.3619107 0.06781,-0.2676873 -0.09422,-0.5396611 -0.36191,-0.6074707 -0.0891,-0.022571 -0.239911,-0.054433 -0.438754,-0.086131 -0.328385,-0.052349 -0.67625,-0.084995 -1.030662,-0.087944 -2.325478,-0.019345 -3.772156,1.1976312 -3.254661,4.0155405 0.04988,0.2716004 0.310488,0.4513418 0.582088,0.4014638 0.271601,-0.049878 0.451342,-0.3104879 0.401464,-0.5820883 -0.386689,-2.1056319 0.497742,-2.8496333 2.262791,-2.8349496 z"
       id="path54"
       inkscape:connector-curvature="0"
       style="fill:#000000;fill-rule:evenodd;stroke:none;stroke-width:1" />
    <path
       d="M 13.038367,2.9754772 C 12.73216,2.6116548 12.483026,2.1144315 12.293104,1.5444359 12.158255,1.1397236 12.080972,0.79311075 12.050028,0.59079463 12.008278,0.31782659 11.753149,0.13038737 11.48018,0.17213742 c -0.272968,0.0417501 -0.460407,0.29687956 -0.418657,0.5698476 0.01036,0.067715 0.03151,0.18238653 0.06528,0.33386638 0.05552,0.2490226 0.127347,0.5138972 0.217578,0.7846974 0.226492,0.6797512 0.529266,1.2840316 0.928897,1.7588557 0.239359,0.2843956 0.508289,0.5145215 0.809449,0.6807109 0.241773,0.1334179 0.545926,0.045579 0.679344,-0.1961945 0.133417,-0.2417733 0.04558,-0.5459258 -0.196195,-0.6793437 -0.187227,-0.1033177 -0.363279,-0.2539674 -0.527511,-0.4491 z"
       id="path56"
       inkscape:connector-curvature="0"
       style="fill:#000000;fill-rule:evenodd;stroke:none;stroke-width:1" />
    <path
       d="m 19.742049,5.8810277 c 0.573585,-0.2431154 0.854154,-0.2566507 0.910449,-0.2334551 0.255318,0.1052005 0.547576,-0.016494 0.652777,-0.271812 0.105201,-0.2553182 -0.01649,-0.5475761 -0.271811,-0.6527773 -0.319284,-0.1315567 -0.87453,-0.1047709 -1.681661,0.2373339 -1.217402,0.5159995 -2.774911,1.6626222 -4.72388,3.6115914 -0.195262,0.1952621 -0.195262,0.5118449 0,0.7071068 0.195262,0.1952618 0.511845,0.1952621 0.707107,0 1.865325,-1.865325 3.323229,-2.93862 4.407019,-3.3979877 z"
       id="path58"
       inkscape:connector-curvature="0"
       style="fill:#000000;fill-rule:evenodd;stroke:none;stroke-width:1" />
    <path
       inkscape:connector-curvature="0"
       id="path150"
       d="M 7.4533774,7.9588217 C 6.8986859,7.5923866 6.4784284,6.9363269 6.3731219,6.2724455 6.1707084,4.9963754 6.9742489,3.8065967 8.2576732,3.4820459 8.4990333,3.421011 8.6164802,3.4116004 8.9391503,3.4274413 9.3272,3.4464918 9.5491605,3.4998607 9.9161459,3.6623532 l 0.1626081,0.071999 0.02368,0.4164324 c 0.02853,0.5018264 0.09915,0.9281693 0.222693,1.3445846 0.141143,0.4757173 0.140621,0.4692534 0.03791,0.4692534 -0.31762,0 -1.1350471,0.3520787 -1.5541263,0.669387 C 8.406293,6.9388518 7.9646415,7.4808881 7.7758771,7.9018419 7.6970589,8.07761 7.6466702,8.0865131 7.4533774,7.9588217 Z"
       style="fill:#ff0000;stroke:#ff0000;stroke-width:0.03537736" />
    <path
       inkscape:connector-curvature="0"
       id="path152"
       d="M 10.422338,11.855479 C 9.587188,11.673778 8.8707214,11.02664 8.5808882,10.192217 8.4922301,9.9369723 8.4825828,9.8623291 8.4825828,9.4316038 c 0,-0.431225 0.00957,-0.5050725 0.098575,-0.7606132 C 8.6353746,8.5153302 8.7267217,8.3057358 8.7841517,8.2052252 9.1845401,7.5044894 9.9197942,7.0274896 10.693162,6.9667453 l 0.267454,-0.021007 0.110939,0.1727678 c 0.317418,0.4943227 0.835929,1.0912959 1.318082,1.5175371 0.317483,0.2806669 0.874375,0.7224644 1.094374,0.868196 0.08135,0.05389 0.07711,0.05705 -0.220746,0.1643325 -0.590729,0.2127714 -1.18265,0.6471923 -1.572947,1.1544113 -0.163148,0.212023 -0.453329,0.741476 -0.531667,0.970059 l -0.0394,0.114977 -0.240638,-0.0028 c -0.13235,-0.0015 -0.337672,-0.02392 -0.456271,-0.04973 z"
       style="fill:#ff0000;stroke:#ff0000;stroke-width:0.03537736" />
    <path
       inkscape:connector-curvature="0"
       id="path154"
       d="M 7.5778302,13.976738 C 7.4513561,13.948445 7.1975206,13.851253 7.0137512,13.760756 6.7386905,13.625303 6.6254168,13.542371 6.3729754,13.291622 6.1147294,13.035108 6.0405531,12.933978 5.9030503,12.650943 5.605544,12.038558 5.5540835,11.393763 5.7546808,10.79189 5.9892053,10.08822 6.4704482,9.562857 7.1523033,9.2661323 l 0.2663288,-0.115899 0.023876,0.4502371 c 0.064435,1.2150746 0.7155568,2.2818596 1.7564573,2.8777466 0.2159569,0.12363 0.3960835,0.196565 0.9791006,0.396451 0.05488,0.01881 -0.2589021,0.403944 -0.4676359,0.573978 -0.457292,0.372507 -0.9295756,0.549616 -1.5134961,0.567569 -0.2534077,0.0078 -0.469363,-0.006 -0.6191038,-0.03948 z"
       style="fill:#ff0000;stroke:#ff0000;stroke-width:0.03537736" />
    <path
       inkscape:connector-curvature="0"
       id="path158"
       d="M 4.6204612,10.074221 C 3.9131037,9.6147909 3.462998,8.7151946 3.5207211,7.8762438 3.5703458,7.1549943 3.858385,6.5845983 4.4118609,6.1115438 4.6196644,5.9339347 5.0287044,5.7040603 5.2114287,5.6621986 l 0.092325,-0.021151 0.019461,0.4182736 C 5.3622967,6.899332 5.6667616,7.641412 6.2296952,8.2687095 L 6.4083971,8.4678435 6.175738,8.6183073 C 5.7007385,8.925496 5.2716911,9.4036118 4.9935196,9.9357311 4.9146893,10.086527 4.8455059,10.209906 4.8397788,10.209906 c -0.00573,0 -0.1044201,-0.06106 -0.2193176,-0.135685 z"
       style="fill:#ff0000;stroke:#ff0000;stroke-width:0.03537736" />
    <path
       inkscape:connector-curvature="0"
       id="path160"
       d="M 3.3502358,13.976261 C 3.214033,13.946946 2.951397,13.849025 2.7666001,13.758661 2.4856895,13.621297 2.3811278,13.544578 2.1288035,13.290695 1.0251501,12.180224 1.1724804,10.461906 2.4521159,9.5198924 2.5709407,9.4324185 2.6863095,9.3619345 2.7084909,9.3632611 2.7306723,9.3645878 2.810525,9.4915651 2.8859412,9.6454329 3.1634253,10.211569 3.7490607,10.803896 4.336069,11.11213 l 0.2693002,0.141408 3.813e-4,0.323332 c 7.097e-4,0.601671 0.1712918,1.224762 0.4817885,1.759844 0.1784785,0.307574 0.1840214,0.281977 -0.092256,0.426008 -0.4490807,0.234118 -1.1354788,0.323217 -1.6450472,0.213539 z"
       style="fill:#ff0000;stroke:#ff0000;stroke-width:0.03537736" />
    <path
       inkscape:connector-curvature="0"
       id="path162"
       d="M 3.2608327,18.488353 C 2.2893117,18.334285 1.4837409,17.606276 1.2250576,16.648585 1.1303705,16.298037 1.1378477,15.713183 1.24134,15.375 1.3389945,15.055893 1.5292015,14.682577 1.6819323,14.510256 l 0.1116998,-0.126026 0.243277,0.158456 c 0.4832755,0.314778 1.176734,0.512614 1.7997654,0.513453 0.1897111,2.55e-4 0.3449293,0.0081 0.3449293,0.01744 0,0.0093 -0.023344,0.07699 -0.051876,0.150353 -0.1999844,0.514188 -0.2786891,1.221641 -0.1981786,1.781367 0.052991,0.368404 0.2147052,0.86368 0.3768141,1.154054 l 0.1225372,0.219492 -0.1805846,0.05363 c -0.2282147,0.06777 -0.734282,0.09635 -0.989483,0.05588 z"
       style="fill:#ff0000;stroke:#ff0000;stroke-width:0.03537736" />
    <path
       inkscape:connector-curvature="0"
       id="path164"
       d="M 3.7298176,21.954655 C 2.9785395,21.757809 2.3291982,21.183999 2.0489876,20.46934 1.9210575,20.143062 1.8761442,19.865363 1.8887795,19.478774 c 0.00895,-0.273951 0.020795,-0.334854 0.064051,-0.329423 0.029186,0.0037 0.1923008,0.06421 0.3624765,0.134539 0.1701759,0.07033 0.4248928,0.153212 0.5660378,0.184178 0.2868029,0.06292 0.9825068,0.08046 1.3289706,0.03351 l 0.2232868,-0.03026 -0.028711,0.224835 c -0.015791,0.123659 -0.026143,0.431792 -0.023003,0.68474 0.00646,0.520342 0.072509,0.832221 0.2758633,1.302577 0.067321,0.155711 0.1141467,0.296467 0.1040581,0.312791 -0.035859,0.05802 -0.7637537,0.02867 -1.0319912,-0.04161 z"
       style="fill:#ff0000;stroke:#ff0000;stroke-width:0.03537736" />
    <path
       inkscape:connector-curvature="0"
       id="path166"
       d="M 7.5260281,22.731391 C 6.8869506,22.63257 6.2719548,22.271495 5.9151034,21.78559 5.5538363,21.293673 5.411159,20.875191 5.4060329,20.292453 c -0.00273,-0.310638 0.047787,-0.67909 0.1076306,-0.784971 0.00757,-0.0134 0.1356995,0.038 0.2847284,0.114213 0.856413,0.437975 1.8485801,0.507637 2.7673564,0.194304 0.1444753,-0.04927 0.2655962,-0.08958 0.2691575,-0.08958 0.00356,0 0.01526,0.210938 0.025996,0.46875 0.015012,0.36048 0.041005,0.541478 0.1125361,0.783622 0.1074032,0.363579 0.2805488,0.748027 0.4397466,0.976402 l 0.1109752,0.159198 -0.1329527,0.117596 c -0.165553,0.146431 -0.6333836,0.378075 -0.8995509,0.445409 -0.272866,0.06903 -0.7102554,0.09349 -0.9656281,0.054 z"
       style="fill:#ff0000;stroke:#ff0000;stroke-width:0.03537736" />
    <path
       inkscape:connector-curvature="0"
       id="path168"
       d="M 6.8879717,18.927974 C 6.7517689,18.898022 6.4898671,18.800828 6.3059679,18.711986 6.0251033,18.5763 5.9224823,18.501333 5.6645844,18.243434 5.4066869,17.985537 5.3317181,17.882915 5.1960322,17.602051 4.9880257,17.171486 4.9079427,16.787717 4.9342136,16.347378 4.9755007,15.655348 5.328306,14.973085 5.8549955,14.566746 l 0.1959449,-0.15117 0.2770062,0.160739 c 0.6099433,0.353934 1.2187765,0.500738 1.9397421,0.467717 0.2529481,-0.01159 0.5059797,-0.03171 0.5622923,-0.04472 0.098299,-0.02271 0.1014159,-0.01957 0.078078,0.07873 -0.049772,0.209637 -0.06483,0.98868 -0.024159,1.249908 0.059815,0.384188 0.2355697,0.881235 0.4339231,1.227166 l 0.1737736,0.303064 -0.1501252,0.19459 c -0.2864601,0.371306 -0.8106078,0.714388 -1.2886285,0.843476 -0.3060674,0.08265 -0.8641735,0.09785 -1.1648706,0.03173 z"
       style="fill:#ff0000;stroke:#ff0000;stroke-width:0.03537736" />
    <path
       inkscape:connector-curvature="0"
       id="path170"
       d="m 11.956252,22.484688 c -0.514691,-0.08666 -0.943778,-0.312748 -1.338928,-0.705473 -0.252262,-0.250713 -0.33175,-0.358679 -0.469563,-0.637796 -0.09385,-0.19008 -0.1901064,-0.451221 -0.221645,-0.601325 -0.07321,-0.348435 -0.047966,-0.881048 0.05785,-1.220519 0.081482,-0.261405 0.273528,-0.654481 0.319762,-0.654481 0.01505,0 0.112049,0.05577 0.215557,0.123943 0.449446,0.295995 1.049387,0.473906 1.695085,0.502674 l 0.444323,0.0198 0.121254,0.233986 c 0.330756,0.638273 1.029861,1.310617 1.611438,1.549756 0.08554,0.03517 0.155579,0.07717 0.155652,0.09333 5.66e-4,0.12556 -0.511489,0.704974 -0.789302,0.893132 -0.51637,0.349728 -1.204095,0.503567 -1.801483,0.402976 z"
       style="fill:#ff0000;stroke:#ff0000;stroke-width:0.03537736" />
    <path
       inkscape:connector-curvature="0"
       id="path172"
       d="m 11.840802,18.221563 c -0.136203,-0.02933 -0.397998,-0.126837 -0.581768,-0.216692 -0.27642,-0.135156 -0.387086,-0.215977 -0.640776,-0.467966 -0.256641,-0.254921 -0.333537,-0.359402 -0.471521,-0.640679 -0.2138118,-0.435847 -0.281903,-0.757376 -0.2584725,-1.220518 0.029666,-0.586393 0.2248495,-1.074341 0.6101485,-1.525339 0.136249,-0.15948 0.467233,-0.438105 0.520436,-0.438105 0.0097,0 0.06083,0.139298 0.113632,0.309552 0.443272,1.429208 1.807304,2.447203 3.282024,2.449417 0.367948,5.53e-4 0.366705,-0.002 0.185258,0.375279 -0.310675,0.64592 -0.921648,1.160647 -1.59273,1.341829 -0.304649,0.08225 -0.864459,0.0982 -1.166231,0.03322 z"
       style="fill:#ff0000;stroke:#ff0000;stroke-width:0.03537736" />
    <path
       inkscape:connector-curvature="0"
       id="path174"
       d="m 15.378538,20.340714 c -0.391488,-0.08237 -0.85957,-0.327926 -1.155947,-0.606417 -0.212754,-0.199914 -0.524812,-0.60264 -0.524345,-0.676692 7.3e-5,-0.01158 0.07273,-0.05091 0.16146,-0.0874 0.464457,-0.19102 1.115785,-0.754533 1.425393,-1.233214 l 0.154095,-0.238245 0.199625,0.179139 c 0.627059,0.562711 1.362842,0.864513 2.209789,0.906409 l 0.418184,0.02069 -0.02106,0.09197 c -0.0621,0.271156 -0.290971,0.630189 -0.602464,0.945086 -0.273132,0.276116 -0.367275,0.345883 -0.655058,0.485445 -0.535729,0.259804 -1.058915,0.329111 -1.60967,0.213235 z"
       style="fill:#ff0000;stroke:#ff0000;stroke-width:0.03537736" />
    <path
       inkscape:connector-curvature="0"
       id="path176"
       d="m 17.501179,17.511662 c -0.392623,-0.0808 -0.862943,-0.33078 -1.168571,-0.621097 -0.259813,-0.246797 -0.476476,-0.536771 -0.476476,-0.6377 0,-0.02939 0.06752,-0.08372 0.150045,-0.120723 0.462765,-0.207514 1.064472,-0.72485 1.369495,-1.177466 0.281132,-0.417166 0.567724,-1.143537 0.567724,-1.438905 v -0.07904 l 0.309552,0.09933 c 0.518029,0.166233 1.239769,0.282335 1.755115,0.282335 0.173687,0 0.184045,0.0054 0.22241,0.114977 0.02213,0.06324 0.08466,0.234375 0.138941,0.380306 0.09014,0.242311 0.09887,0.3083 0.100696,0.760613 0.0018,0.454651 -0.0061,0.518502 -0.09724,0.778302 -0.175253,0.499826 -0.552088,1.003566 -0.954759,1.276288 -0.552698,0.374333 -1.265947,0.516756 -1.916933,0.38278 z"
       style="fill:#ff0000;stroke:#ff0000;stroke-width:0.03537736" />
    <path
       inkscape:connector-curvature="0"
       id="path178"
       d="m 13.963443,15.392796 c -0.136202,-0.02803 -0.396327,-0.124503 -0.578054,-0.214382 -1.401434,-0.693126 -1.818852,-2.473564 -0.872973,-3.72355 0.408314,-0.539592 1.195853,-0.96392 1.783927,-0.961184 0.150332,6.99e-4 0.170225,0.01186 0.268042,0.150354 0.575264,0.814494 1.420015,1.65602 2.149648,2.141439 0.238325,0.158556 0.238797,0.159199 0.238797,0.324907 0,0.09132 -0.03193,0.291963 -0.07096,0.445871 -0.21522,0.848712 -0.80921,1.487052 -1.644841,1.767651 -0.350997,0.117862 -0.893144,0.147189 -1.273585,0.06889 z"
       style="fill:#00ff00;stroke:#ff0000;stroke-width:0.03537736" />
    <path
       inkscape:connector-curvature="0"
       id="path182"
       d="m 11.330775,5.2769573 c -0.0437,-0.1472101 -0.103872,-0.3989636 -0.133712,-0.5594522 -0.07041,-0.3786957 -0.07079,-1.2525485 -7.11e-4,-1.6538993 0.07249,-0.4151707 0.205691,-0.8954206 0.238624,-0.8603474 0.015,0.015979 0.07686,0.1466788 0.137465,0.2904438 0.146354,0.3471959 0.395851,0.7617378 0.657895,1.093102 l 0.213772,0.2703228 -0.302896,0.301979 c -0.344327,0.3432839 -0.511864,0.6265392 -0.646583,1.0931765 l -0.0844,0.2923295 z"
       style="fill:#00ff00;stroke:#00ff00;stroke-width:0.03537736" />
    <path
       inkscape:connector-curvature="0"
       id="path184"
       d="m 17.678066,12.169322 c -0.15566,-0.08858 -0.410377,-0.251266 -0.566038,-0.36153 -0.313318,-0.221943 -1.179042,-1.068343 -1.442575,-1.410374 l -0.168991,-0.219328 0.115925,-0.01755 c 1.687636,-0.2555693 2.539934,-0.4820204 3.370641,-0.8955623 0.175118,-0.087177 0.408874,-0.2187465 0.519457,-0.2923766 l 0.201062,-0.133873 0.02471,0.2307519 c 0.05049,0.4714858 -0.05352,1.080727 -0.263621,1.544086 -0.167242,0.368845 -0.41366,0.714597 -0.777076,1.090323 -0.285438,0.295107 -0.668842,0.631136 -0.716055,0.627576 -0.0079,-5.98e-4 -0.14178,-0.07356 -0.29744,-0.162138 z"
       style="fill:#ff0000;stroke:#ff0000;stroke-width:0.03537736" />
    <path
       inkscape:connector-curvature="0"
       id="path186"
       d="m 14.069575,15.376292 c -0.09729,-0.0165 -0.246577,-0.05539 -0.331754,-0.08643 -0.993486,-0.361954 -1.625492,-1.176206 -1.69131,-2.179018 -0.06251,-0.952358 0.458031,-1.86495 1.315517,-2.306331 0.349281,-0.179788 0.667315,-0.276216 0.911002,-0.276216 0.157505,0 0.158434,7.45e-4 0.407869,0.32724 0.55002,0.719942 1.1949,1.357782 1.878454,1.857948 l 0.367137,0.268639 -0.02071,0.221821 c -0.0926,0.991648 -0.83279,1.861966 -1.80455,2.1218 -0.231376,0.06187 -0.800498,0.08975 -1.031651,0.05054 z"
       style="fill:#ff0000;stroke:#ff0000;stroke-width:0.03537736" />
    <path
       inkscape:connector-curvature="0"
       id="path226"
       d="m 19.729953,12.771027 c -0.05837,-0.0077 -0.207645,-0.02342 -0.331717,-0.03495 l -0.225584,-0.02097 0.194081,-0.200125 c 0.260635,-0.268751 0.553505,-0.623812 0.679537,-0.823836 l 0.10321,-0.163805 0.250142,0.216908 c 0.292305,0.253471 0.666126,0.53144 0.937767,0.697314 l 0.192343,0.117452 -0.174654,0.04474 c -0.450124,0.115318 -1.331202,0.206003 -1.625125,0.167267 z"
       style="fill:#00ff00;stroke:#00ff00;stroke-width:0.03537736" />
    <path
       inkscape:connector-curvature="0"
       id="path228"
       d="m 17.5805,12.106884 c -0.46122,-0.274362 -0.73936,-0.49869 -1.274559,-1.027965 -0.391801,-0.387465 -0.816462,-0.867926 -0.790274,-0.894114 0.0068,-0.0068 0.05837,-0.01833 0.11453,-0.02555 0.05616,-0.0072 0.157834,-0.02309 0.225935,-0.03526 0.0681,-0.01217 0.17158,-0.02801 0.229953,-0.0352 0.08514,-0.01049 1.278888,-0.2486647 1.415094,-0.2823391 0.01946,-0.00481 0.154776,-0.045287 0.300708,-0.089949 0.145931,-0.044661 0.28125,-0.084829 0.300707,-0.089263 0.03967,-0.00904 0.05689,-0.015731 0.477595,-0.1855945 0.324152,-0.1308799 0.742953,-0.3490443 0.977309,-0.5091064 l 0.145942,-0.099676 0.01713,0.1136404 c 0.02221,0.1473034 0.0083,0.7024454 -0.02308,0.919833 -0.06792,0.4707866 -0.309849,0.9925816 -0.675981,1.4579576 -0.270204,0.343445 -0.952391,1.008255 -1.034609,1.008255 -0.01488,0 -0.197756,-0.101548 -0.406401,-0.225663 z"
       style="fill:#00ff00;stroke:#00ff00;stroke-width:0.03537736" />
    <path
       inkscape:connector-curvature="0"
       id="path232"
       d="M 13.34434,8.099215 C 13.217866,7.9917538 12.97672,7.7679611 12.80846,7.6018981 L 12.502533,7.2999653 12.454686,7.0126006 c -0.07052,-0.4235455 -0.06108,-1.1558344 0.0183,-1.4194402 0.09314,-0.3093127 0.22207,-0.5262762 0.429044,-0.7220231 0.376802,-0.3563641 0.812034,-0.4942626 1.654299,-0.5241479 l 0.557513,-0.019782 -0.297555,0.4455685 c -0.718105,1.0753169 -1.137376,2.1670745 -1.214185,3.1616693 l -0.02781,0.3601536 z"
       style="fill:#00ff00;stroke:#00ff00;stroke-width:0.03537736" />
  </g>
</svg>
